<mxfile host="app.diagrams.net" modified="2023-06-12T16:21:31.734Z" agent="Mozilla/5.0 (Macintosh; Intel Mac OS X 10_15_7) AppleWebKit/537.36 (KHTML, like Gecko) Chrome/114.0.0.0 Safari/537.36" etag="vUF8rQGEpP_UwMwUyOeA" version="21.3.7" type="github">
  <diagram name="第 1 页" id="_olERDH-Ds2qDen2ryAS">
    <mxGraphModel dx="889" dy="561" grid="1" gridSize="10" guides="1" tooltips="1" connect="1" arrows="1" fold="1" page="1" pageScale="1" pageWidth="900" pageHeight="1600" math="0" shadow="0">
      <root>
        <mxCell id="0" />
        <mxCell id="1" parent="0" />
        <mxCell id="3maOfFrvnZsRWrZ1mnj6-1" value="" style="rounded=0;whiteSpace=wrap;html=1;dashed=1;" vertex="1" parent="1">
          <mxGeometry x="110" y="180" width="170" height="350" as="geometry" />
        </mxCell>
        <mxCell id="3maOfFrvnZsRWrZ1mnj6-4" value="" style="edgeStyle=orthogonalEdgeStyle;rounded=0;orthogonalLoop=1;jettySize=auto;html=1;" edge="1" parent="1" source="3maOfFrvnZsRWrZ1mnj6-2" target="3maOfFrvnZsRWrZ1mnj6-3">
          <mxGeometry relative="1" as="geometry" />
        </mxCell>
        <mxCell id="3maOfFrvnZsRWrZ1mnj6-2" value="Java源代码&lt;br&gt;（.java文件）" style="rounded=1;whiteSpace=wrap;html=1;" vertex="1" parent="1">
          <mxGeometry x="135" y="200" width="120" height="60" as="geometry" />
        </mxCell>
        <mxCell id="3maOfFrvnZsRWrZ1mnj6-6" value="" style="edgeStyle=orthogonalEdgeStyle;rounded=0;orthogonalLoop=1;jettySize=auto;html=1;" edge="1" parent="1" source="3maOfFrvnZsRWrZ1mnj6-3" target="3maOfFrvnZsRWrZ1mnj6-5">
          <mxGeometry relative="1" as="geometry" />
        </mxCell>
        <mxCell id="3maOfFrvnZsRWrZ1mnj6-3" value="Java编译器" style="whiteSpace=wrap;html=1;rounded=1;" vertex="1" parent="1">
          <mxGeometry x="135" y="310" width="120" height="60" as="geometry" />
        </mxCell>
        <mxCell id="3maOfFrvnZsRWrZ1mnj6-8" value="" style="rounded=0;orthogonalLoop=1;jettySize=auto;html=1;" edge="1" parent="1" source="3maOfFrvnZsRWrZ1mnj6-5" target="3maOfFrvnZsRWrZ1mnj6-7">
          <mxGeometry relative="1" as="geometry" />
        </mxCell>
        <mxCell id="3maOfFrvnZsRWrZ1mnj6-5" value="Java字节码&lt;br&gt;（.class文件）" style="whiteSpace=wrap;html=1;rounded=1;" vertex="1" parent="1">
          <mxGeometry x="135" y="440" width="120" height="60" as="geometry" />
        </mxCell>
        <mxCell id="3maOfFrvnZsRWrZ1mnj6-11" value="" style="rounded=0;orthogonalLoop=1;jettySize=auto;html=1;" edge="1" parent="1" source="3maOfFrvnZsRWrZ1mnj6-7" target="3maOfFrvnZsRWrZ1mnj6-10">
          <mxGeometry relative="1" as="geometry" />
        </mxCell>
        <mxCell id="3maOfFrvnZsRWrZ1mnj6-7" value="字节码本地&lt;br&gt;或网络" style="ellipse;whiteSpace=wrap;html=1;rounded=1;" vertex="1" parent="1">
          <mxGeometry x="300" y="310" width="90" height="60" as="geometry" />
        </mxCell>
        <mxCell id="3maOfFrvnZsRWrZ1mnj6-9" value="Java编译环境" style="text;html=1;strokeColor=none;fillColor=none;align=center;verticalAlign=middle;whiteSpace=wrap;rounded=0;" vertex="1" parent="1">
          <mxGeometry x="160" y="150" width="80" height="30" as="geometry" />
        </mxCell>
        <mxCell id="3maOfFrvnZsRWrZ1mnj6-18" style="rounded=0;orthogonalLoop=1;jettySize=auto;html=1;entryX=0.5;entryY=0;entryDx=0;entryDy=0;exitX=0.427;exitY=1.012;exitDx=0;exitDy=0;exitPerimeter=0;" edge="1" parent="1" source="3maOfFrvnZsRWrZ1mnj6-10" target="3maOfFrvnZsRWrZ1mnj6-16">
          <mxGeometry relative="1" as="geometry">
            <Array as="points">
              <mxPoint x="490" y="330" />
            </Array>
          </mxGeometry>
        </mxCell>
        <mxCell id="3maOfFrvnZsRWrZ1mnj6-19" style="rounded=0;orthogonalLoop=1;jettySize=auto;html=1;entryX=0.5;entryY=0;entryDx=0;entryDy=0;" edge="1" parent="1" source="3maOfFrvnZsRWrZ1mnj6-10" target="3maOfFrvnZsRWrZ1mnj6-17">
          <mxGeometry relative="1" as="geometry" />
        </mxCell>
        <mxCell id="3maOfFrvnZsRWrZ1mnj6-10" value="类装载器&lt;br&gt;字节码的验证" style="whiteSpace=wrap;html=1;rounded=1;" vertex="1" parent="1">
          <mxGeometry x="460" y="180" width="120" height="60" as="geometry" />
        </mxCell>
        <mxCell id="3maOfFrvnZsRWrZ1mnj6-12" value="Java运行时环境" style="text;html=1;strokeColor=none;fillColor=none;align=center;verticalAlign=middle;whiteSpace=wrap;rounded=0;" vertex="1" parent="1">
          <mxGeometry x="500" y="140" width="100" height="30" as="geometry" />
        </mxCell>
        <mxCell id="3maOfFrvnZsRWrZ1mnj6-13" value="" style="rounded=1;whiteSpace=wrap;html=1;fillColor=none;" vertex="1" parent="1">
          <mxGeometry x="430" y="300" width="220" height="200" as="geometry" />
        </mxCell>
        <mxCell id="3maOfFrvnZsRWrZ1mnj6-15" style="edgeStyle=orthogonalEdgeStyle;rounded=0;orthogonalLoop=1;jettySize=auto;html=1;entryX=1;entryY=0.5;entryDx=0;entryDy=0;" edge="1" parent="1" source="3maOfFrvnZsRWrZ1mnj6-14" target="3maOfFrvnZsRWrZ1mnj6-10">
          <mxGeometry relative="1" as="geometry" />
        </mxCell>
        <mxCell id="3maOfFrvnZsRWrZ1mnj6-14" value="Java类库" style="rounded=1;whiteSpace=wrap;html=1;" vertex="1" parent="1">
          <mxGeometry x="630" y="180" width="80" height="60" as="geometry" />
        </mxCell>
        <mxCell id="3maOfFrvnZsRWrZ1mnj6-22" style="edgeStyle=orthogonalEdgeStyle;rounded=0;orthogonalLoop=1;jettySize=auto;html=1;entryX=0.2;entryY=0;entryDx=0;entryDy=0;entryPerimeter=0;" edge="1" parent="1" source="3maOfFrvnZsRWrZ1mnj6-16" target="3maOfFrvnZsRWrZ1mnj6-20">
          <mxGeometry relative="1" as="geometry" />
        </mxCell>
        <mxCell id="3maOfFrvnZsRWrZ1mnj6-16" value="Java解释器" style="rounded=1;whiteSpace=wrap;html=1;" vertex="1" parent="1">
          <mxGeometry x="450" y="340" width="80" height="40" as="geometry" />
        </mxCell>
        <mxCell id="3maOfFrvnZsRWrZ1mnj6-23" value="" style="edgeStyle=orthogonalEdgeStyle;rounded=0;orthogonalLoop=1;jettySize=auto;html=1;" edge="1" parent="1" source="3maOfFrvnZsRWrZ1mnj6-17" target="3maOfFrvnZsRWrZ1mnj6-20">
          <mxGeometry relative="1" as="geometry">
            <Array as="points">
              <mxPoint x="590" y="420" />
              <mxPoint x="590" y="420" />
            </Array>
          </mxGeometry>
        </mxCell>
        <mxCell id="3maOfFrvnZsRWrZ1mnj6-17" value="即时编译器" style="rounded=1;whiteSpace=wrap;html=1;" vertex="1" parent="1">
          <mxGeometry x="550" y="340" width="80" height="40" as="geometry" />
        </mxCell>
        <mxCell id="3maOfFrvnZsRWrZ1mnj6-25" value="" style="edgeStyle=orthogonalEdgeStyle;rounded=0;orthogonalLoop=1;jettySize=auto;html=1;" edge="1" parent="1" source="3maOfFrvnZsRWrZ1mnj6-20" target="3maOfFrvnZsRWrZ1mnj6-24">
          <mxGeometry relative="1" as="geometry" />
        </mxCell>
        <mxCell id="3maOfFrvnZsRWrZ1mnj6-20" value="运行期系统" style="rounded=1;whiteSpace=wrap;html=1;" vertex="1" parent="1">
          <mxGeometry x="460" y="420" width="150" height="60" as="geometry" />
        </mxCell>
        <mxCell id="3maOfFrvnZsRWrZ1mnj6-27" value="" style="edgeStyle=orthogonalEdgeStyle;rounded=0;orthogonalLoop=1;jettySize=auto;html=1;" edge="1" parent="1" source="3maOfFrvnZsRWrZ1mnj6-24" target="3maOfFrvnZsRWrZ1mnj6-26">
          <mxGeometry relative="1" as="geometry" />
        </mxCell>
        <mxCell id="3maOfFrvnZsRWrZ1mnj6-24" value="操作系统" style="whiteSpace=wrap;html=1;rounded=1;" vertex="1" parent="1">
          <mxGeometry x="475" y="530" width="120" height="40" as="geometry" />
        </mxCell>
        <mxCell id="3maOfFrvnZsRWrZ1mnj6-26" value="硬件" style="whiteSpace=wrap;html=1;rounded=1;" vertex="1" parent="1">
          <mxGeometry x="475" y="600" width="115" height="30" as="geometry" />
        </mxCell>
        <mxCell id="3maOfFrvnZsRWrZ1mnj6-28" value="Java&lt;br&gt;虚拟机" style="text;html=1;strokeColor=none;fillColor=none;align=center;verticalAlign=middle;whiteSpace=wrap;rounded=0;" vertex="1" parent="1">
          <mxGeometry x="630" y="370" width="100" height="30" as="geometry" />
        </mxCell>
        <mxCell id="3maOfFrvnZsRWrZ1mnj6-29" value="" style="rounded=0;whiteSpace=wrap;html=1;fillColor=none;dashed=1;" vertex="1" parent="1">
          <mxGeometry x="400" y="170" width="310" height="340" as="geometry" />
        </mxCell>
        <mxCell id="3maOfFrvnZsRWrZ1mnj6-30" value="" style="shape=flexArrow;endArrow=classic;html=1;rounded=0;" edge="1" parent="1">
          <mxGeometry width="50" height="50" relative="1" as="geometry">
            <mxPoint x="100" y="560" as="sourcePoint" />
            <mxPoint x="150" y="510" as="targetPoint" />
          </mxGeometry>
        </mxCell>
        <mxCell id="3maOfFrvnZsRWrZ1mnj6-31" value="&lt;b&gt;JVM规范&lt;/b&gt;" style="ellipse;whiteSpace=wrap;html=1;fillColor=#f8cecc;strokeColor=#b85450;" vertex="1" parent="1">
          <mxGeometry x="40" y="550" width="115" height="70" as="geometry" />
        </mxCell>
        <mxCell id="3maOfFrvnZsRWrZ1mnj6-33" value="" style="shape=flexArrow;endArrow=classic;html=1;rounded=0;entryX=0.677;entryY=0.088;entryDx=0;entryDy=0;entryPerimeter=0;width=13;endSize=5.43;" edge="1" parent="1" source="3maOfFrvnZsRWrZ1mnj6-34" target="3maOfFrvnZsRWrZ1mnj6-29">
          <mxGeometry width="50" height="50" relative="1" as="geometry">
            <mxPoint x="820" y="205" as="sourcePoint" />
            <mxPoint x="870" y="155" as="targetPoint" />
          </mxGeometry>
        </mxCell>
        <mxCell id="3maOfFrvnZsRWrZ1mnj6-34" value="&lt;b&gt;ClassLoader&lt;/b&gt;" style="ellipse;whiteSpace=wrap;html=1;fillColor=#f8cecc;strokeColor=#b85450;" vertex="1" parent="1">
          <mxGeometry x="730" y="110" width="115" height="70" as="geometry" />
        </mxCell>
        <mxCell id="3maOfFrvnZsRWrZ1mnj6-36" value="" style="shape=flexArrow;endArrow=classic;html=1;rounded=0;entryX=0.677;entryY=0.088;entryDx=0;entryDy=0;entryPerimeter=0;width=13;endSize=5.43;" edge="1" parent="1" source="3maOfFrvnZsRWrZ1mnj6-37">
          <mxGeometry width="50" height="50" relative="1" as="geometry">
            <mxPoint x="840" y="315" as="sourcePoint" />
            <mxPoint x="630" y="310" as="targetPoint" />
          </mxGeometry>
        </mxCell>
        <mxCell id="3maOfFrvnZsRWrZ1mnj6-37" value="&lt;b&gt;内存分配&lt;/b&gt;" style="ellipse;whiteSpace=wrap;html=1;fillColor=#f8cecc;strokeColor=#b85450;" vertex="1" parent="1">
          <mxGeometry x="750" y="220" width="115" height="70" as="geometry" />
        </mxCell>
        <mxCell id="3maOfFrvnZsRWrZ1mnj6-38" value="" style="shape=flexArrow;endArrow=classic;html=1;rounded=0;entryX=0.742;entryY=0.559;entryDx=0;entryDy=0;entryPerimeter=0;width=13;endSize=5.43;" edge="1" parent="1" source="3maOfFrvnZsRWrZ1mnj6-39" target="3maOfFrvnZsRWrZ1mnj6-29">
          <mxGeometry width="50" height="50" relative="1" as="geometry">
            <mxPoint x="840" y="395" as="sourcePoint" />
            <mxPoint x="630" y="390" as="targetPoint" />
          </mxGeometry>
        </mxCell>
        <mxCell id="3maOfFrvnZsRWrZ1mnj6-39" value="&lt;b&gt;字节码执行引擎&lt;/b&gt;" style="ellipse;whiteSpace=wrap;html=1;fillColor=#f8cecc;strokeColor=#b85450;" vertex="1" parent="1">
          <mxGeometry x="750" y="300" width="115" height="70" as="geometry" />
        </mxCell>
        <mxCell id="3maOfFrvnZsRWrZ1mnj6-40" value="&lt;b&gt;字节码执行引擎&lt;/b&gt;" style="ellipse;whiteSpace=wrap;html=1;fillColor=#f8cecc;strokeColor=#b85450;" vertex="1" parent="1">
          <mxGeometry x="750" y="380" width="115" height="70" as="geometry" />
        </mxCell>
        <mxCell id="3maOfFrvnZsRWrZ1mnj6-41" value="" style="shape=flexArrow;endArrow=classic;html=1;rounded=0;width=13;endSize=5.43;entryX=0.774;entryY=0.655;entryDx=0;entryDy=0;entryPerimeter=0;" edge="1" parent="1" target="3maOfFrvnZsRWrZ1mnj6-29">
          <mxGeometry width="50" height="50" relative="1" as="geometry">
            <mxPoint x="750" y="406.5" as="sourcePoint" />
            <mxPoint x="629" y="423.5" as="targetPoint" />
          </mxGeometry>
        </mxCell>
        <mxCell id="3maOfFrvnZsRWrZ1mnj6-42" value="&lt;b&gt;高效并发处理&lt;/b&gt;" style="ellipse;whiteSpace=wrap;html=1;fillColor=#f8cecc;strokeColor=#b85450;" vertex="1" parent="1">
          <mxGeometry x="750" y="460" width="115" height="70" as="geometry" />
        </mxCell>
        <mxCell id="3maOfFrvnZsRWrZ1mnj6-43" value="" style="shape=flexArrow;endArrow=classic;html=1;rounded=0;width=13;endSize=5.43;entryX=0.774;entryY=0.655;entryDx=0;entryDy=0;entryPerimeter=0;" edge="1" parent="1">
          <mxGeometry width="50" height="50" relative="1" as="geometry">
            <mxPoint x="750" y="486.5" as="sourcePoint" />
            <mxPoint x="640" y="473" as="targetPoint" />
          </mxGeometry>
        </mxCell>
      </root>
    </mxGraphModel>
  </diagram>
</mxfile>
